<svg xmlns="http://www.w3.org/2000/svg" xmlns:xlink="http://www.w3.org/1999/xlink" width="500" zoomAndPan="magnify" viewBox="0 0 375 374.999991" height="500" preserveAspectRatio="xMidYMid meet" version="1.0"><defs><g/><clipPath id="id1"><path d="M 123.605469 78 L 169 78 L 169 145 L 123.605469 145 Z M 123.605469 78 " clip-rule="nonzero"/></clipPath><clipPath id="id2"><path d="M 207 78 L 252.605469 78 L 252.605469 145 L 207 145 Z M 207 78 " clip-rule="nonzero"/></clipPath><clipPath id="id3"><path d="M 165 61.546875 L 210 61.546875 L 210 162.046875 L 165 162.046875 Z M 165 61.546875 " clip-rule="nonzero"/></clipPath></defs><path fill="#03fa6e" d="M 164.304688 143.484375 C 163.59375 143.484375 162.890625 143.246094 162.328125 142.796875 L 126.253906 114.3125 C 125.476562 113.703125 125.03125 112.785156 125.03125 111.796875 C 125.03125 110.804688 125.476562 109.890625 126.25 109.273438 L 162.328125 80.792969 C 162.890625 80.34375 163.59375 80.105469 164.304688 80.105469 C 165.289062 80.105469 166.210938 80.546875 166.8125 81.328125 C 167.34375 82 167.582031 82.839844 167.476562 83.6875 C 167.378906 84.539062 166.949219 85.300781 166.28125 85.828125 L 133.402344 111.796875 L 166.28125 137.753906 C 166.949219 138.292969 167.378906 139.050781 167.476562 139.898438 C 167.582031 140.75 167.34375 141.585938 166.8125 142.261719 C 166.210938 143.039062 165.289062 143.484375 164.304688 143.484375 " fill-opacity="1" fill-rule="nonzero"/><g clip-path="url(#id1)"><path fill="#2a446b" d="M 164.304688 78.738281 C 163.289062 78.738281 162.292969 79.082031 161.492188 79.71875 L 125.410156 108.203125 C 124.304688 109.082031 123.671875 110.386719 123.671875 111.796875 C 123.671875 113.203125 124.308594 114.515625 125.410156 115.390625 L 161.492188 143.875 C 162.285156 144.5 163.289062 144.851562 164.304688 144.851562 C 165.714844 144.851562 167.019531 144.210938 167.886719 143.101562 C 168.644531 142.148438 168.976562 140.949219 168.832031 139.738281 C 168.6875 138.527344 168.082031 137.4375 167.125 136.683594 L 135.601562 111.796875 L 167.125 86.90625 C 168.082031 86.144531 168.6875 85.0625 168.832031 83.851562 C 168.976562 82.640625 168.644531 81.441406 167.886719 80.480469 C 167.019531 79.371094 165.710938 78.738281 164.304688 78.738281 Z M 164.304688 81.46875 C 164.847656 81.46875 165.386719 81.710938 165.746094 82.167969 C 166.378906 82.972656 166.238281 84.128906 165.441406 84.757812 L 131.195312 111.796875 L 165.441406 138.832031 C 166.238281 139.460938 166.378906 140.617188 165.746094 141.414062 C 165.386719 141.878906 164.847656 142.121094 164.304688 142.121094 C 163.90625 142.121094 163.511719 141.996094 163.171875 141.726562 L 127.09375 113.242188 C 126.652344 112.894531 126.394531 112.359375 126.394531 111.796875 C 126.394531 111.226562 126.652344 110.699219 127.09375 110.347656 L 163.171875 81.863281 C 163.503906 81.597656 163.90625 81.46875 164.304688 81.46875 " fill-opacity="1" fill-rule="nonzero"/></g><path fill="#03fa6e" d="M 211.90625 143.484375 C 210.921875 143.484375 210.007812 143.039062 209.394531 142.261719 C 208.304688 140.875 208.542969 138.855469 209.933594 137.753906 L 242.816406 111.796875 L 209.933594 85.828125 C 208.542969 84.738281 208.304688 82.714844 209.394531 81.328125 C 210.007812 80.546875 210.921875 80.105469 211.90625 80.105469 C 212.621094 80.105469 213.324219 80.34375 213.882812 80.792969 L 249.964844 109.273438 C 250.738281 109.890625 251.179688 110.804688 251.179688 111.796875 C 251.179688 112.785156 250.738281 113.703125 249.957031 114.3125 L 213.882812 142.796875 C 213.324219 143.246094 212.621094 143.484375 211.90625 143.484375 " fill-opacity="1" fill-rule="nonzero"/><g clip-path="url(#id2)"><path fill="#2a446b" d="M 211.90625 78.738281 C 210.503906 78.738281 209.199219 79.371094 208.328125 80.480469 C 206.769531 82.464844 207.113281 85.34375 209.089844 86.90625 L 240.613281 111.796875 L 209.089844 136.683594 C 207.113281 138.242188 206.769531 141.125 208.328125 143.101562 C 209.199219 144.210938 210.503906 144.851562 211.90625 144.851562 C 212.925781 144.851562 213.921875 144.5 214.722656 143.875 L 250.800781 115.390625 C 251.90625 114.515625 252.539062 113.203125 252.539062 111.796875 C 252.539062 110.386719 251.90625 109.082031 250.808594 108.203125 L 214.726562 79.71875 C 213.925781 79.082031 212.925781 78.738281 211.90625 78.738281 Z M 211.90625 81.46875 C 212.304688 81.46875 212.707031 81.597656 213.039062 81.863281 L 249.121094 110.347656 C 249.5625 110.699219 249.816406 111.226562 249.816406 111.796875 C 249.816406 112.359375 249.5625 112.894531 249.121094 113.242188 L 213.039062 141.726562 C 212.707031 141.996094 212.304688 142.121094 211.90625 142.121094 C 211.363281 142.121094 210.824219 141.878906 210.464844 141.414062 C 209.839844 140.617188 209.976562 139.460938 210.769531 138.832031 L 245.015625 111.796875 L 210.769531 84.757812 C 209.976562 84.128906 209.839844 82.972656 210.464844 82.167969 C 210.824219 81.710938 211.371094 81.46875 211.90625 81.46875 " fill-opacity="1" fill-rule="nonzero"/></g><path fill="#03fa6e" d="M 170.179688 160.675781 C 169.78125 160.675781 169.394531 160.597656 169.023438 160.457031 C 168.230469 160.144531 167.597656 159.542969 167.253906 158.761719 C 166.90625 157.976562 166.890625 157.109375 167.195312 156.308594 L 202.433594 64.964844 C 202.90625 63.742188 204.101562 62.917969 205.410156 62.917969 C 205.804688 62.917969 206.199219 62.992188 206.570312 63.132812 C 208.207031 63.773438 209.027344 65.636719 208.390625 67.285156 L 173.160156 158.625 C 172.6875 159.847656 171.484375 160.675781 170.179688 160.675781 " fill-opacity="1" fill-rule="nonzero"/><g clip-path="url(#id3)"><path fill="#2a446b" d="M 205.410156 61.550781 C 203.542969 61.550781 201.832031 62.730469 201.164062 64.472656 L 165.925781 155.8125 C 165.492188 156.953125 165.519531 158.195312 166.007812 159.3125 C 166.503906 160.429688 167.398438 161.292969 168.535156 161.726562 C 169.0625 161.9375 169.613281 162.039062 170.179688 162.039062 C 172.042969 162.039062 173.753906 160.867188 174.429688 159.117188 L 209.660156 67.777344 C 210.570312 65.421875 209.398438 62.769531 207.054688 61.863281 C 206.53125 61.65625 205.976562 61.550781 205.410156 61.550781 Z M 205.410156 64.28125 C 205.632812 64.28125 205.855469 64.324219 206.074219 64.40625 C 207.019531 64.773438 207.488281 65.839844 207.125 66.789062 L 171.886719 158.128906 C 171.609375 158.859375 170.914062 159.308594 170.179688 159.308594 C 169.953125 159.308594 169.730469 159.269531 169.515625 159.183594 C 168.566406 158.816406 168.097656 157.746094 168.46875 156.800781 L 203.699219 65.460938 C 203.984375 64.730469 204.675781 64.28125 205.410156 64.28125 " fill-opacity="1" fill-rule="nonzero"/></g><g fill="#ffffff" fill-opacity="1"><g transform="translate(106.083911, 213.099754)"><g><path d="M 18.90625 -30.421875 C 8.558594 -30.421875 2.089844 -25.375 2.089844 -16.101562 L 2.089844 -16 C 2.089844 -6.675781 8.203125 -1.324219 18.648438 -1.324219 C 20.382812 -1.324219 22.0625 -1.527344 23.644531 -1.835938 L 23.644531 -0.613281 C 23.644531 3.058594 22.113281 4.636719 17.273438 4.636719 C 14.574219 4.636719 9.9375 3.921875 7.03125 2.699219 L 8.816406 10.191406 C 10.648438 11.007812 14.726562 11.769531 18.34375 11.769531 C 25.476562 11.769531 31.746094 8.96875 31.746094 0.203125 L 31.746094 -27.515625 C 28.6875 -28.941406 23.898438 -30.421875 18.90625 -30.421875 Z M 10.191406 -15.949219 C 10.191406 -20.992188 13.402344 -23.183594 18.90625 -23.183594 C 20.484375 -23.183594 22.0625 -22.980469 23.644531 -22.472656 L 23.644531 -9.121094 C 21.910156 -8.714844 20.332031 -8.558594 18.957031 -8.558594 C 13.351562 -8.558594 10.191406 -10.851562 10.191406 -15.898438 Z M 10.191406 -15.949219 "/></g></g></g><g fill="#ffffff" fill-opacity="1"><g transform="translate(138.637215, 213.099754)"><g><path d="M 16.40625 -30.265625 C 12.6875 -30.265625 8.355469 -29.453125 6.164062 -28.585938 L 4.382812 -21.402344 C 7.59375 -22.675781 11.769531 -23.4375 14.675781 -23.4375 C 19.160156 -23.4375 21.707031 -22.113281 21.707031 -18.445312 L 21.707031 -17.375 C 19.3125 -17.679688 17.222656 -17.785156 15.082031 -17.785156 C 7.082031 -17.785156 2.039062 -14.929688 2.039062 -8.714844 L 2.039062 -8.613281 C 2.039062 -1.734375 7.59375 0.816406 16.558594 0.816406 C 20.535156 0.816406 25.785156 0.253906 29.808594 -0.613281 L 29.808594 -18.699219 C 29.808594 -27.363281 24.507812 -30.265625 16.40625 -30.265625 Z M 10.34375 -9.121094 C 10.34375 -11.71875 12.789062 -12.636719 16.867188 -12.636719 C 18.140625 -12.636719 20.078125 -12.484375 21.707031 -12.230469 L 21.707031 -5.910156 C 20.027344 -5.65625 18.242188 -5.503906 16.867188 -5.503906 C 12.738281 -5.503906 10.34375 -6.523438 10.34375 -9.019531 Z M 10.34375 -9.121094 "/></g></g></g><g fill="#ffffff" fill-opacity="1"><g transform="translate(169.152733, 213.099754)"><g><path d="M 31.644531 -27.617188 C 28.128906 -29.042969 23.796875 -30.421875 18.34375 -30.421875 C 8.355469 -30.421875 2.089844 -23.796875 2.089844 -14.828125 L 2.089844 -14.726562 C 2.089844 -5.808594 8.050781 0.765625 17.988281 0.765625 C 19.921875 0.765625 21.757812 0.40625 23.542969 -0.0507812 L 23.542969 11.210938 L 31.644531 11.210938 Z M 18.34375 -6.472656 C 13.042969 -6.472656 10.242188 -10.039062 10.242188 -14.726562 L 10.242188 -14.828125 C 10.242188 -19.566406 13.042969 -23.183594 18.34375 -23.183594 C 20.230469 -23.183594 21.960938 -22.980469 23.542969 -22.574219 L 23.542969 -7.285156 C 21.960938 -6.878906 20.078125 -6.472656 18.34375 -6.472656 Z M 18.34375 -6.472656 "/></g></g></g><g fill="#ffffff" fill-opacity="1"><g transform="translate(201.604142, 213.099754)"><g><path d="M 10.851562 0 L 10.851562 -22.675781 C 12.738281 -22.980469 14.574219 -23.183594 16 -23.183594 C 19.769531 -23.183594 21.808594 -21.808594 21.808594 -18.140625 L 21.808594 0 L 29.859375 0 L 29.859375 -19.109375 C 29.859375 -27.871094 23.59375 -30.421875 16.355469 -30.421875 C 13.402344 -30.421875 7.644531 -29.757812 2.75 -28.890625 L 2.75 0 Z M 10.851562 0 "/></g></g></g><g fill="#ffffff" fill-opacity="1"><g transform="translate(232.323436, 213.099754)"><g><path d="M 18.292969 0.816406 C 27.871094 0.816406 34.546875 -5.808594 34.546875 -14.828125 L 34.546875 -14.878906 C 34.546875 -23.847656 27.871094 -30.421875 18.292969 -30.421875 C 8.714844 -30.421875 2.089844 -23.847656 2.089844 -14.878906 L 2.089844 -14.828125 C 2.089844 -5.808594 8.765625 0.816406 18.292969 0.816406 Z M 18.292969 -6.421875 C 13.453125 -6.421875 10.191406 -10.089844 10.191406 -14.828125 L 10.191406 -14.929688 C 10.191406 -19.617188 13.402344 -23.183594 18.292969 -23.183594 C 23.234375 -23.183594 26.394531 -19.617188 26.394531 -14.929688 L 26.394531 -14.828125 C 26.394531 -10.089844 23.183594 -6.421875 18.292969 -6.421875 Z M 18.292969 -6.421875 "/></g></g></g><g fill="#03fa6e" fill-opacity="1"><g transform="translate(100.466586, 256.0688)"><g><path d="M 16.0625 -6.851562 C 15.773438 -5.625 15.511719 -4.425781 15.292969 -3.488281 L 14.523438 -6.878906 L 13.105469 -13.804688 L 8.703125 -13.804688 L 7.308594 -6.902344 L 6.515625 -3.199219 C 6.300781 -4.207031 6.109375 -5.195312 5.746094 -6.851562 L 4.375 -13.804688 L 0.433594 -13.804688 L 3.871094 0 L 8.679688 0 L 10.148438 -6.878906 C 10.507812 -8.417969 10.726562 -9.449219 10.917969 -10.316406 C 11.183594 -9.160156 11.421875 -8.007812 11.6875 -6.878906 L 13.128906 0 L 18.011719 0 L 21.355469 -13.804688 L 17.410156 -13.804688 Z M 16.0625 -6.851562 "/></g></g></g><g fill="#03fa6e" fill-opacity="1"><g transform="translate(121.33117, 256.0688)"><g><path d="M 15.269531 -6.445312 C 15.269531 -11.375 12.578125 -14.355469 8.152344 -14.355469 C 3.773438 -14.355469 0.960938 -11.324219 0.960938 -7.023438 L 0.960938 -6.996094 C 0.960938 -2.621094 3.96875 0.359375 8.609375 0.359375 C 11.300781 0.359375 13.203125 -0.480469 14.597656 -1.347656 L 12.9375 -4.304688 C 11.925781 -3.582031 10.460938 -2.980469 8.777344 -2.980469 C 6.683594 -2.980469 5.3125 -4.328125 4.929688 -6.109375 L 15.269531 -6.109375 Z M 8.128906 -11.253906 C 9.980469 -11.253906 11.085938 -10.050781 11.375 -8.464844 L 4.953125 -8.464844 C 5.3125 -10.050781 6.46875 -11.253906 8.128906 -11.253906 Z M 8.128906 -11.253906 "/></g></g></g><g fill="#03fa6e" fill-opacity="1"><g transform="translate(136.666998, 256.0688)"><g><path d="M 7.574219 0.382812 C 12.289062 0.382812 15.246094 -2.742188 15.246094 -6.972656 L 15.246094 -7.023438 C 15.246094 -11.253906 12.457031 -14.355469 7.742188 -14.355469 C 6.851562 -14.355469 5.964844 -14.1875 5.121094 -13.996094 L 5.121094 -19.5 L 1.296875 -19.5 L 1.296875 -0.960938 C 3.269531 0 5 0.382812 7.574219 0.382812 Z M 7.574219 -3.03125 C 6.683594 -3.03125 5.867188 -3.148438 5.121094 -3.34375 L 5.121094 -10.582031 C 5.867188 -10.75 6.757812 -10.941406 7.574219 -10.941406 C 10.101562 -10.941406 11.398438 -9.234375 11.398438 -7.023438 L 11.398438 -6.972656 C 11.398438 -4.761719 10.101562 -3.03125 7.574219 -3.03125 Z M 7.574219 -3.03125 "/></g></g></g><g fill="#03fa6e" fill-opacity="1"><g transform="translate(151.978791, 256.0688)"><g/></g></g><g fill="#03fa6e" fill-opacity="1"><g transform="translate(155.127321, 256.0688)"><g><path d="M 8.632812 0.382812 C 11.207031 0.382812 12.9375 0 14.910156 -0.960938 L 14.910156 -19.5 L 11.109375 -19.5 L 11.109375 -13.996094 C 10.269531 -14.1875 9.378906 -14.355469 8.488281 -14.355469 C 3.773438 -14.355469 0.984375 -11.253906 0.984375 -7.023438 L 0.984375 -6.972656 C 0.984375 -2.742188 3.917969 0.382812 8.632812 0.382812 Z M 8.632812 -3.03125 C 6.132812 -3.03125 4.808594 -4.761719 4.808594 -6.972656 L 4.808594 -7.023438 C 4.808594 -9.234375 6.132812 -10.941406 8.632812 -10.941406 C 9.472656 -10.941406 10.363281 -10.75 11.109375 -10.582031 L 11.109375 -3.34375 C 10.363281 -3.148438 9.546875 -3.03125 8.632812 -3.03125 Z M 8.632812 -3.03125 "/></g></g></g><g fill="#03fa6e" fill-opacity="1"><g transform="translate(170.439114, 256.0688)"><g><path d="M 15.269531 -6.445312 C 15.269531 -11.375 12.578125 -14.355469 8.152344 -14.355469 C 3.773438 -14.355469 0.960938 -11.324219 0.960938 -7.023438 L 0.960938 -6.996094 C 0.960938 -2.621094 3.96875 0.359375 8.609375 0.359375 C 11.300781 0.359375 13.203125 -0.480469 14.597656 -1.347656 L 12.9375 -4.304688 C 11.925781 -3.582031 10.460938 -2.980469 8.777344 -2.980469 C 6.683594 -2.980469 5.3125 -4.328125 4.929688 -6.109375 L 15.269531 -6.109375 Z M 8.128906 -11.253906 C 9.980469 -11.253906 11.085938 -10.050781 11.375 -8.464844 L 4.953125 -8.464844 C 5.3125 -10.050781 6.46875 -11.253906 8.128906 -11.253906 Z M 8.128906 -11.253906 "/></g></g></g><g fill="#03fa6e" fill-opacity="1"><g transform="translate(185.774944, 256.0688)"><g><path d="M 7.621094 -2.691406 L 4.28125 -13.804688 L 0.289062 -13.804688 L 5 0 L 10.242188 0 L 14.957031 -13.804688 L 10.964844 -13.804688 Z M 7.621094 -2.691406 "/></g></g></g><g fill="#03fa6e" fill-opacity="1"><g transform="translate(200.101181, 256.0688)"><g><path d="M 15.269531 -6.445312 C 15.269531 -11.375 12.578125 -14.355469 8.152344 -14.355469 C 3.773438 -14.355469 0.960938 -11.324219 0.960938 -7.023438 L 0.960938 -6.996094 C 0.960938 -2.621094 3.96875 0.359375 8.609375 0.359375 C 11.300781 0.359375 13.203125 -0.480469 14.597656 -1.347656 L 12.9375 -4.304688 C 11.925781 -3.582031 10.460938 -2.980469 8.777344 -2.980469 C 6.683594 -2.980469 5.3125 -4.328125 4.929688 -6.109375 L 15.269531 -6.109375 Z M 8.128906 -11.253906 C 9.980469 -11.253906 11.085938 -10.050781 11.375 -8.464844 L 4.953125 -8.464844 C 5.3125 -10.050781 6.46875 -11.253906 8.128906 -11.253906 Z M 8.128906 -11.253906 "/></g></g></g><g fill="#03fa6e" fill-opacity="1"><g transform="translate(215.43701, 256.0688)"><g><path d="M 5.121094 0 L 5.121094 -19.5 L 1.296875 -19.5 L 1.296875 0 Z M 5.121094 0 "/></g></g></g><g fill="#03fa6e" fill-opacity="1"><g transform="translate(220.941262, 256.0688)"><g><path d="M 8.632812 0.382812 C 13.152344 0.382812 16.304688 -2.742188 16.304688 -6.996094 L 16.304688 -7.023438 C 16.304688 -11.253906 13.152344 -14.355469 8.632812 -14.355469 C 4.113281 -14.355469 0.984375 -11.253906 0.984375 -7.023438 L 0.984375 -6.996094 C 0.984375 -2.742188 4.136719 0.382812 8.632812 0.382812 Z M 8.632812 -3.03125 C 6.347656 -3.03125 4.808594 -4.761719 4.808594 -6.996094 L 4.808594 -7.046875 C 4.808594 -9.257812 6.324219 -10.941406 8.632812 -10.941406 C 10.964844 -10.941406 12.457031 -9.257812 12.457031 -7.046875 L 12.457031 -6.996094 C 12.457031 -4.761719 10.941406 -3.03125 8.632812 -3.03125 Z M 8.632812 -3.03125 "/></g></g></g><g fill="#03fa6e" fill-opacity="1"><g transform="translate(237.286677, 256.0688)"><g><path d="M 5.121094 5.289062 L 5.121094 -0.0234375 C 5.964844 0.191406 6.851562 0.359375 7.742188 0.359375 C 12.433594 0.359375 15.246094 -2.742188 15.246094 -6.949219 L 15.246094 -6.996094 C 15.246094 -11.230469 12.289062 -14.355469 7.574219 -14.355469 C 5 -14.355469 2.957031 -13.707031 1.296875 -13.035156 L 1.296875 5.289062 Z M 7.574219 -3.054688 C 6.757812 -3.054688 5.867188 -3.246094 5.121094 -3.4375 L 5.121094 -10.652344 C 5.867188 -10.84375 6.683594 -10.941406 7.574219 -10.941406 C 10.101562 -10.941406 11.398438 -9.234375 11.398438 -6.996094 L 11.398438 -6.949219 C 11.398438 -4.738281 10.101562 -3.054688 7.574219 -3.054688 Z M 7.574219 -3.054688 "/></g></g></g><g fill="#03fa6e" fill-opacity="1"><g transform="translate(252.598467, 256.0688)"><g><path d="M 15.269531 -6.445312 C 15.269531 -11.375 12.578125 -14.355469 8.152344 -14.355469 C 3.773438 -14.355469 0.960938 -11.324219 0.960938 -7.023438 L 0.960938 -6.996094 C 0.960938 -2.621094 3.96875 0.359375 8.609375 0.359375 C 11.300781 0.359375 13.203125 -0.480469 14.597656 -1.347656 L 12.9375 -4.304688 C 11.925781 -3.582031 10.460938 -2.980469 8.777344 -2.980469 C 6.683594 -2.980469 5.3125 -4.328125 4.929688 -6.109375 L 15.269531 -6.109375 Z M 8.128906 -11.253906 C 9.980469 -11.253906 11.085938 -10.050781 11.375 -8.464844 L 4.953125 -8.464844 C 5.3125 -10.050781 6.46875 -11.253906 8.128906 -11.253906 Z M 8.128906 -11.253906 "/></g></g></g><g fill="#03fa6e" fill-opacity="1"><g transform="translate(267.93429, 256.0688)"><g><path d="M 5.121094 0 L 5.121094 -10.101562 C 5.433594 -10.171875 6.996094 -10.292969 7.574219 -10.292969 L 9.644531 -10.292969 L 9.644531 -13.804688 L 6.949219 -13.804688 C 5.699219 -13.804688 3.320312 -13.707031 1.296875 -13.273438 L 1.296875 0 Z M 5.121094 0 "/></g></g></g></svg>